<svg width="209" height="64" viewBox="0 0 209 64" fill="none" xmlns="http://www.w3.org/2000/svg">
<path d="M0 11.3641C0 5.08787 5.08787 0 11.3641 0H197.636C203.912 0 209 5.08787 209 11.3641V51.8794C209 58.1556 203.912 63.2435 197.636 63.2435H11.3641C5.08786 63.2435 0 58.1556 0 51.8794V11.3641Z" fill="url(#paint0_linear_2004_335)"/>
<path d="M31.56 15.8109H37.4273V27.5455H31.56C30.0039 27.5455 28.5115 26.9274 27.4112 25.8271C26.3108 24.7267 25.6927 23.2343 25.6927 21.6782C25.6927 20.1221 26.3108 18.6297 27.4112 17.5294C28.5115 16.4291 30.0039 15.8109 31.56 15.8109Z" fill="#F4511E"/>
<path d="M43.2946 27.5455H37.4273V15.8109H43.2946C44.8507 15.8109 46.3431 16.4291 47.4434 17.5294C48.5438 18.6297 49.1619 20.1221 49.1619 21.6782C49.1619 23.2343 48.5438 24.7267 47.4434 25.8271C46.3431 26.9274 44.8507 27.5455 43.2946 27.5455Z" fill="#FF8A65"/>
<path d="M37.4273 33.4128C37.4273 36.6533 40.0542 39.2802 43.2946 39.2802C46.535 39.2802 49.1619 36.6533 49.1619 33.4128C49.1619 30.1724 46.535 27.5455 43.2946 27.5455C40.0542 27.5455 37.4273 30.1724 37.4273 33.4128Z" fill="#29B6F6"/>
<path d="M31.56 27.5455H37.4273V39.2802H31.56C30.0039 39.2802 28.5115 38.662 27.4112 37.5617C26.3108 36.4613 25.6927 34.969 25.6927 33.4128C25.6927 31.8567 26.3108 30.3644 27.4112 29.264C28.5115 28.1637 30.0039 27.5455 31.56 27.5455Z" fill="#7C4DFF"/>
<path d="M31.56 39.2802H37.4273V45.1475C37.4273 46.7036 36.8092 48.196 35.7088 49.2963C34.6085 50.3966 33.1161 51.0148 31.56 51.0148C30.0039 51.0148 28.5115 50.3966 27.4112 49.2963C26.3108 48.196 25.6927 46.7036 25.6927 45.1475C25.6927 43.5914 26.3108 42.099 27.4112 40.9986C28.5115 39.8983 30.0039 39.2802 31.56 39.2802Z" fill="#00E676"/>
<path d="M182.397 38.7348C181.782 38.7348 181.228 38.6254 180.736 38.4064C180.247 38.1832 179.86 37.8547 179.573 37.421C179.291 36.9873 179.15 36.4525 179.15 35.8166C179.15 35.2692 179.251 34.8165 179.453 34.4586C179.656 34.1006 179.931 33.8143 180.281 33.5995C180.63 33.3848 181.024 33.2226 181.462 33.1132C181.904 32.9995 182.361 32.9174 182.833 32.8668C183.401 32.8079 183.862 32.7552 184.216 32.7089C184.57 32.6584 184.827 32.5826 184.987 32.4815C185.151 32.3762 185.233 32.2141 185.233 31.9951V31.9572C185.233 31.4814 185.092 31.1129 184.81 30.8519C184.528 30.5908 184.121 30.4602 183.591 30.4602C183.031 30.4602 182.586 30.5824 182.258 30.8266C181.934 31.0708 181.715 31.3593 181.601 31.692L179.466 31.3888C179.634 30.7992 179.912 30.3065 180.3 29.9107C180.687 29.5107 181.161 29.2117 181.721 29.0138C182.281 28.8116 182.9 28.7106 183.578 28.7106C184.045 28.7106 184.511 28.7653 184.974 28.8748C185.437 28.9843 185.86 29.1654 186.244 29.418C186.627 29.6665 186.934 30.0055 187.166 30.435C187.402 30.8645 187.52 31.4014 187.52 32.0457V38.539H185.321V37.2062H185.246C185.107 37.4758 184.911 37.7284 184.658 37.9642C184.41 38.1958 184.096 38.3832 183.717 38.5264C183.342 38.6654 182.902 38.7348 182.397 38.7348ZM182.991 37.0547C183.45 37.0547 183.848 36.9641 184.184 36.783C184.521 36.5978 184.78 36.3535 184.961 36.0503C185.147 35.7471 185.239 35.4166 185.239 35.0586V33.9154C185.168 33.9743 185.046 34.0291 184.873 34.0796C184.705 34.1301 184.515 34.1743 184.304 34.2122C184.094 34.2501 183.885 34.2838 183.679 34.3133C183.473 34.3428 183.294 34.368 183.142 34.3891C182.801 34.4354 182.496 34.5112 182.226 34.6165C181.957 34.7218 181.744 34.8691 181.588 35.0586C181.433 35.2439 181.355 35.484 181.355 35.7787C181.355 36.1998 181.508 36.5178 181.816 36.7325C182.123 36.9473 182.515 37.0547 182.991 37.0547Z" fill="#00E676"/>
<path d="M163.642 38.539V28.8369H165.827V30.4855H165.941C166.143 29.9297 166.478 29.4959 166.945 29.1843C167.413 28.8685 167.971 28.7106 168.619 28.7106C169.276 28.7106 169.83 28.8706 170.28 29.1906C170.735 29.5064 171.055 29.9381 171.24 30.4855H171.341C171.556 29.9465 171.918 29.517 172.428 29.1969C172.942 28.8727 173.55 28.7106 174.253 28.7106C175.146 28.7106 175.875 28.9927 176.439 29.557C177.003 30.1213 177.285 30.9445 177.285 32.0267V38.539H174.992V32.3805C174.992 31.7783 174.832 31.3382 174.512 31.0603C174.192 30.7782 173.801 30.6371 173.337 30.6371C172.786 30.6371 172.354 30.8098 172.043 31.1551C171.735 31.4961 171.581 31.9404 171.581 32.4878V38.539H169.339V32.2857C169.339 31.7846 169.187 31.3846 168.884 31.0856C168.585 30.7866 168.194 30.6371 167.709 30.6371C167.381 30.6371 167.082 30.7213 166.812 30.8898C166.543 31.054 166.328 31.2877 166.168 31.5909C166.008 31.8899 165.928 32.2394 165.928 32.6394V38.539H163.642Z" fill="#29B6F6"/>
<path d="M156.744 42.3795C155.923 42.3795 155.218 42.2679 154.628 42.0447C154.038 41.8257 153.565 41.5309 153.207 41.1604C152.849 40.7898 152.6 40.3792 152.461 39.9287L154.521 39.4297C154.613 39.6191 154.748 39.8065 154.925 39.9918C155.102 40.1813 155.34 40.3371 155.639 40.4592C155.942 40.5856 156.323 40.6487 156.782 40.6487C157.43 40.6487 157.967 40.4908 158.393 40.175C158.818 39.8634 159.031 39.3496 159.031 38.6338V36.7957H158.917C158.799 37.0315 158.626 37.2736 158.399 37.5221C158.176 37.7705 157.879 37.979 157.508 38.1474C157.142 38.3158 156.681 38.4001 156.125 38.4001C155.38 38.4001 154.704 38.2253 154.097 37.8758C153.495 37.5221 153.015 36.9957 152.657 36.2967C152.304 35.5934 152.127 34.7133 152.127 33.6564C152.127 32.591 152.304 31.692 152.657 30.9592C153.015 30.2223 153.497 29.6644 154.104 29.2854C154.71 28.9022 155.386 28.7106 156.131 28.7106C156.7 28.7106 157.167 28.8074 157.534 29.0011C157.904 29.1906 158.199 29.4201 158.418 29.6896C158.637 29.9549 158.803 30.2055 158.917 30.4413H159.043V28.8369H161.298V38.6969C161.298 39.5265 161.1 40.2129 160.705 40.7561C160.309 41.2993 159.768 41.7057 159.081 41.9752C158.395 42.2447 157.616 42.3795 156.744 42.3795ZM156.763 36.6062C157.247 36.6062 157.66 36.4883 158.001 36.2525C158.342 36.0166 158.601 35.6777 158.778 35.2355C158.955 34.7934 159.043 34.2628 159.043 33.6437C159.043 33.0332 158.955 32.4984 158.778 32.0394C158.605 31.5804 158.348 31.2245 158.007 30.9719C157.67 30.715 157.256 30.5866 156.763 30.5866C156.253 30.5866 155.828 30.7192 155.487 30.9845C155.146 31.2498 154.889 31.6141 154.716 32.0773C154.544 32.5363 154.457 33.0584 154.457 33.6437C154.457 34.2375 154.544 34.7576 154.716 35.2039C154.893 35.6461 155.152 35.9914 155.493 36.2398C155.839 36.4841 156.262 36.6062 156.763 36.6062Z" fill="#7C4DFF"/>
<path d="M147.887 38.539V28.8369H150.173V38.539H147.887ZM149.036 27.4599C148.674 27.4599 148.363 27.3399 148.102 27.0999C147.84 26.8556 147.71 26.563 147.71 26.2219C147.71 25.8766 147.84 25.5839 148.102 25.3439C148.363 25.0997 148.674 24.9775 149.036 24.9775C149.403 24.9775 149.714 25.0997 149.971 25.3439C150.232 25.5839 150.363 25.8766 150.363 26.2219C150.363 26.563 150.232 26.8556 149.971 27.0999C149.714 27.3399 149.403 27.4599 149.036 27.4599Z" fill="#FF8A65"/>
<path d="M137.566 38.5391V25.6029H145.853V27.5673H139.909V31.0793H145.284V33.0437H139.909V38.5391H137.566Z" fill="#F4511E"/>
<path d="M124.5 32.8542V38.539H122.213V28.8369H124.399V30.4855H124.513C124.736 29.9423 125.092 29.5107 125.58 29.1906C126.073 28.8706 126.681 28.7106 127.406 28.7106C128.075 28.7106 128.658 28.8537 129.155 29.1401C129.656 29.4264 130.044 29.8412 130.317 30.3844C130.595 30.9277 130.732 31.5867 130.728 32.3615V38.539H128.441V32.7152C128.441 32.0667 128.273 31.5593 127.936 31.193C127.603 30.8266 127.142 30.6434 126.553 30.6434C126.153 30.6434 125.797 30.7318 125.485 30.9087C125.178 31.0814 124.936 31.3319 124.759 31.6604C124.586 31.9888 124.5 32.3868 124.5 32.8542Z" fill="white"/>
<path d="M117.575 38.539V28.8369H119.862V38.539H117.575ZM118.725 27.4599C118.363 27.4599 118.051 27.3399 117.79 27.0999C117.529 26.8556 117.399 26.563 117.399 26.2219C117.399 25.8766 117.529 25.5839 117.79 25.3439C118.051 25.0997 118.363 24.9775 118.725 24.9775C119.091 24.9775 119.403 25.0997 119.66 25.3439C119.921 25.5839 120.052 25.8766 120.052 26.2219C120.052 26.563 119.921 26.8556 119.66 27.0999C119.403 27.3399 119.091 27.4599 118.725 27.4599Z" fill="white"/>
<path d="M104.611 32.8542V38.539H102.324V28.8369H104.51V30.4855H104.623C104.847 29.9423 105.202 29.5107 105.691 29.1906C106.184 28.8706 106.792 28.7106 107.516 28.7106C108.186 28.7106 108.769 28.8537 109.266 29.1401C109.767 29.4264 110.155 29.8412 110.428 30.3844C110.706 30.9277 110.843 31.5867 110.839 32.3615V38.539H108.552V32.7152C108.552 32.0667 108.384 31.5593 108.047 31.193C107.714 30.8266 107.253 30.6434 106.664 30.6434C106.264 30.6434 105.908 30.7318 105.596 30.9087C105.289 31.0814 105.047 31.3319 104.87 31.6604C104.697 31.9888 104.611 32.3868 104.611 32.8542Z" fill="white"/>
<path d="M96.0757 38.7285C95.1029 38.7285 94.2629 38.5264 93.5554 38.1221C92.8522 37.7137 92.3111 37.1368 91.9321 36.3914C91.5531 35.6419 91.3636 34.7597 91.3636 33.7448C91.3636 32.7468 91.5531 31.8709 91.9321 31.1172C92.3153 30.3592 92.8501 29.7696 93.5365 29.3485C94.2229 28.9232 95.0293 28.7106 95.9557 28.7106C96.5536 28.7106 97.1179 28.8074 97.6485 29.0011C98.1833 29.1906 98.6549 29.4854 99.0634 29.8854C99.4761 30.2855 99.8003 30.795 100.036 31.414C100.272 32.0288 100.39 32.7615 100.39 33.6122V34.3133H92.4374V32.7721H98.198C98.1938 32.3341 98.0991 31.9446 97.9138 31.6035C97.7285 31.2582 97.4695 30.9866 97.1369 30.7887C96.8084 30.5908 96.4252 30.4918 95.9873 30.4918C95.5198 30.4918 95.1093 30.6055 94.7555 30.8329C94.4018 31.0561 94.126 31.3509 93.9281 31.7172C93.7344 32.0794 93.6354 32.4773 93.6312 32.911V34.2564C93.6312 34.8207 93.7344 35.305 93.9407 35.7092C94.1471 36.1093 94.4355 36.4167 94.8061 36.6314C95.1766 36.842 95.6104 36.9473 96.1073 36.9473C96.4399 36.9473 96.741 36.901 97.0105 36.8083C97.28 36.7115 97.5137 36.5704 97.7117 36.3851C97.9096 36.1998 98.0591 35.9703 98.1601 35.6966L100.295 35.9366C100.16 36.5009 99.9035 36.9936 99.5245 37.4147C99.1497 37.8316 98.6697 38.1558 98.0843 38.3874C97.499 38.6148 96.8295 38.7285 96.0757 38.7285Z" fill="white"/>
<path d="M80.6635 42.1773V28.8369H82.9121V30.4413H83.0448C83.1627 30.2055 83.329 29.9549 83.5438 29.6896C83.7585 29.4201 84.0491 29.1906 84.4154 29.0011C84.7818 28.8074 85.2492 28.7106 85.8177 28.7106C86.5673 28.7106 87.2431 28.9022 87.8453 29.2854C88.4517 29.6644 88.9317 30.2265 89.2855 30.9719C89.6434 31.713 89.8224 32.6226 89.8224 33.7006C89.8224 34.766 89.6476 35.6713 89.2981 36.4167C88.9486 37.162 88.4727 37.7305 87.8706 38.1221C87.2684 38.5138 86.5862 38.7096 85.824 38.7096C85.2682 38.7096 84.8071 38.6169 84.4407 38.4316C84.0744 38.2464 83.7796 38.0232 83.5564 37.7621C83.3374 37.4968 83.1669 37.2463 83.0448 37.0104H82.95V42.1773H80.6635ZM82.9058 33.688C82.9058 34.3154 82.9942 34.8649 83.1711 35.3366C83.3522 35.8082 83.6111 36.1767 83.948 36.442C84.2891 36.703 84.7018 36.8336 85.1861 36.8336C85.6914 36.8336 86.1146 36.6988 86.4557 36.4293C86.7968 36.1556 87.0536 35.7829 87.2263 35.3113C87.4031 34.8355 87.4916 34.2943 87.4916 33.688C87.4916 33.0858 87.4053 32.551 87.2326 32.0836C87.06 31.6162 86.8031 31.2498 86.462 30.9845C86.1209 30.7192 85.6956 30.5866 85.1861 30.5866C84.6976 30.5866 84.2828 30.715 83.9417 30.9719C83.6006 31.2287 83.3416 31.5888 83.1648 32.052C82.9921 32.5152 82.9058 33.0605 82.9058 33.688Z" fill="white"/>
<path d="M78.5491 32.0709C78.5491 33.4647 78.288 34.6585 77.7658 35.6523C77.2479 36.6419 76.5404 37.3999 75.6435 37.9262C74.7508 38.4526 73.738 38.7158 72.6053 38.7158C71.4725 38.7158 70.4576 38.4526 69.5607 37.9262C68.668 37.3957 67.9605 36.6356 67.4384 35.646C66.9204 34.6522 66.6614 33.4605 66.6614 32.0709C66.6614 30.677 66.9204 29.4853 67.4384 28.4957C67.9605 27.5019 68.668 26.7418 69.5607 26.2155C70.4576 25.6891 71.4725 25.4259 72.6053 25.4259C73.738 25.4259 74.7508 25.6891 75.6435 26.2155C76.5404 26.7418 77.2479 27.5019 77.7658 28.4957C78.288 29.4853 78.5491 30.677 78.5491 32.0709ZM76.193 32.0709C76.193 31.0897 76.0393 30.2622 75.7319 29.5885C75.4287 28.9105 75.0076 28.3989 74.4686 28.0536C73.9296 27.7041 73.3085 27.5293 72.6053 27.5293C71.902 27.5293 71.2809 27.7041 70.7419 28.0536C70.2029 28.3989 69.7797 28.9105 69.4723 29.5885C69.1691 30.2622 69.0175 31.0897 69.0175 32.0709C69.0175 33.052 69.1691 33.8816 69.4723 34.5595C69.7797 35.2333 70.2029 35.7449 70.7419 36.0945C71.2809 36.4398 71.902 36.6124 72.6053 36.6124C73.3085 36.6124 73.9296 36.4398 74.4686 36.0945C75.0076 35.7449 75.4287 35.2333 75.7319 34.5595C76.0393 33.8816 76.193 33.052 76.193 32.0709Z" fill="white"/>
<defs>
<linearGradient id="paint0_linear_2004_335" x1="3.67958" y1="9.62401" x2="207.097" y2="66.6018" gradientUnits="userSpaceOnUse">
<stop stop-color="#101010"/>
<stop offset="1" stop-color="#230219"/>
</linearGradient>
</defs>
</svg>
